# xmcd
#
# Track frame offsets: 
#        150
#        32451
#        58872
#        73322
#        99211
#        117574
#        128046
#        136696
#        162482
#        210652
#        238651
#        248098
#
# Disc length: 3677 seconds
#
# Revision: 1
# Processed by: cddbd v1.5.2PL0 Copyright (c) Steve Scherf et al.
# Submitted via: ExactAudioCopy v0.99pb4
#
DISCID=a80e5b0c
DTITLE=Bireli Lagrene - To Bi Or Not To Bi
DYEAR=2006
DGENRE=Jazz
TTITLE0=Sur La Croisette
TTITLE1=London (Soli Live)
TTITLE2=R and Bi
TTITLE3=Deauville En Ville
TTITLE4=Sous Les Pommiers
TTITLE5=Capucines
TTITLE6=La Belle Vie
TTITLE7=Madras Express
TTITLE8=Amparo
TTITLE9=Bar de Nuit
TTITLE10=To Bi Or Not To Bi
TTITLE11=Vague à l'Ame
EXTD=YEAR: 2006
EXTT0=
EXTT1=
EXTT2=
EXTT3=
EXTT4=
EXTT5=
EXTT6=
EXTT7=
EXTT8=
EXTT9=
EXTT10=
EXTT11=
PLAYORDER=
